<?xml version="1.0" encoding="UTF-8"?>
<svg width="34px" height="41px" viewBox="0 0 34 41" version="1.1" xmlns="http://www.w3.org/2000/svg" xmlns:xlink="http://www.w3.org/1999/xlink">
    <title>shield</title>
    <g id="Page-1" stroke="none" stroke-width="1" fill="none" fill-rule="evenodd" stroke-linecap="round" stroke-linejoin="round">
        <g id="Small" transform="translate(-306, -542)" stroke="#000000" stroke-width="4">
            <g id="shield" transform="translate(308, 544)">
                <path d="M30,20.3474238 C30,29.5958749 23.4375,34.2201004 15.6375,36.9021512 C15.2290547,37.0386907 14.7853828,37.0321581 14.38125,36.8836543 C6.5625,34.2201004 0,29.5958749 0,20.3474238 L0,7.39959237 C0,6.37803668 0.839466094,5.54990216 1.875,5.54990216 C5.625,5.54990216 10.3125,3.33027391 13.575,0.51874479 C14.3956382,-0.17291493 15.6043618,-0.17291493 16.425,0.51874479 C19.70625,3.34877081 24.375,5.54990216 28.125,5.54990216 C29.1605339,5.54990216 30,6.37803668 30,7.39959237 L30,20.3474238 Z" id="Path"></path>
                <polyline id="Path" points="10 18.5 13.6666667 22 21 15"></polyline>
            </g>
        </g>
    </g>
</svg>